<svg xmlns="http://www.w3.org/2000/svg" xmlns:xlink="http://www.w3.org/1999/xlink" width="500" zoomAndPan="magnify" viewBox="0 0 375 374.999991" height="500" preserveAspectRatio="xMidYMid meet" version="1.0"><defs><filter x="0%" y="0%" width="100%" height="100%" id="7d324a251f"><feColorMatrix values="0 0 0 0 1 0 0 0 0 1 0 0 0 0 1 0 0 0 1 0" color-interpolation-filters="sRGB"/></filter><g/><clipPath id="e053dd2da5"><path d="M 112.5 90.046875 L 188 90.046875 L 188 213 L 112.5 213 Z M 112.5 90.046875 " clip-rule="nonzero"/></clipPath><mask id="2323e4fe2e"><g filter="url(#7d324a251f)"><rect x="-37.5" width="450" fill="#000000" y="-37.499999" height="449.999989" fill-opacity="0.749"/></g></mask><clipPath id="d98438d6e6"><path d="M 0.5 0.046875 L 75.679688 0.046875 L 75.679688 122 L 0.5 122 Z M 0.5 0.046875 " clip-rule="nonzero"/></clipPath><clipPath id="6517bcaecf"><rect x="0" width="76" y="0" height="123"/></clipPath><clipPath id="2ab5727153"><path d="M 187 90.046875 L 262.5 90.046875 L 262.5 213 L 187 213 Z M 187 90.046875 " clip-rule="nonzero"/></clipPath><mask id="0c1f9b4190"><g filter="url(#7d324a251f)"><rect x="-37.5" width="450" fill="#000000" y="-37.499999" height="449.999989" fill-opacity="0.749"/></g></mask><clipPath id="7fdfc51689"><path d="M 0.441406 0.046875 L 75.5 0.046875 L 75.5 122 L 0.441406 122 Z M 0.441406 0.046875 " clip-rule="nonzero"/></clipPath><clipPath id="d0bd42a522"><rect x="0" width="76" y="0" height="123"/></clipPath><clipPath id="a0606e79e3"><path d="M 112.5 183 L 262.5 183 L 262.5 240.046875 L 112.5 240.046875 Z M 112.5 183 " clip-rule="nonzero"/></clipPath><clipPath id="627626e611"><path d="M 112.5 90.046875 L 188 90.046875 L 188 240.046875 L 112.5 240.046875 Z M 112.5 90.046875 " clip-rule="nonzero"/></clipPath><mask id="5b80b58282"><g filter="url(#7d324a251f)"><rect x="-37.5" width="450" fill="#000000" y="-37.499999" height="449.999989" fill-opacity="0.749"/></g></mask><clipPath id="9b5dd64b3a"><path d="M 0.5 0.046875 L 75.679688 0.046875 L 75.679688 150.046875 L 0.5 150.046875 Z M 0.5 0.046875 " clip-rule="nonzero"/></clipPath><clipPath id="aa0c5a907a"><rect x="0" width="76" y="0" height="151"/></clipPath><clipPath id="563cef9f8d"><path d="M 187 90.046875 L 262.5 90.046875 L 262.5 240.046875 L 187 240.046875 Z M 187 90.046875 " clip-rule="nonzero"/></clipPath><mask id="e9ed594b17"><g filter="url(#7d324a251f)"><rect x="-37.5" width="450" fill="#000000" y="-37.499999" height="449.999989" fill-opacity="0.749"/></g></mask><clipPath id="9a2a87c84e"><path d="M 0.441406 0.046875 L 75.5 0.046875 L 75.5 150.046875 L 0.441406 150.046875 Z M 0.441406 0.046875 " clip-rule="nonzero"/></clipPath><clipPath id="8727973664"><rect x="0" width="76" y="0" height="151"/></clipPath></defs><g clip-path="url(#e053dd2da5)"><g mask="url(#2323e4fe2e)"><g transform="matrix(1, 0, 0, 1, 112, 90)"><g clip-path="url(#6517bcaecf)"><g clip-path="url(#d98438d6e6)"><path fill="#5271ff" d="M 38 93.796875 L 75.5 0.046875 L 0.5 121.921875 Z M 38 93.796875 " fill-opacity="1" fill-rule="nonzero"/></g></g></g></g></g><g clip-path="url(#2ab5727153)"><g mask="url(#0c1f9b4190)"><g transform="matrix(1, 0, 0, 1, 187, 90)"><g clip-path="url(#d0bd42a522)"><g clip-path="url(#7fdfc51689)"><path fill="#5271ff" d="M 38 93.796875 L 0.5 0.046875 L 75.5 121.921875 Z M 38 93.796875 " fill-opacity="1" fill-rule="nonzero"/></g></g></g></g></g><g clip-path="url(#a0606e79e3)"><path fill="#8c52ff" d="M 187.5 240.046875 L 112.5 211.921875 L 150 183.796875 L 225 183.796875 L 262.5 211.921875 Z M 187.5 240.046875 " fill-opacity="1" fill-rule="nonzero"/></g><g clip-path="url(#627626e611)"><g mask="url(#5b80b58282)"><g transform="matrix(1, 0, 0, 1, 112, 90)"><g clip-path="url(#aa0c5a907a)"><g clip-path="url(#9b5dd64b3a)"><path fill="#00796b" d="M 75.5 150.046875 L 75.5 0.046875 L 0.5 121.921875 Z M 75.5 150.046875 " fill-opacity="1" fill-rule="nonzero"/></g></g></g></g></g><g clip-path="url(#563cef9f8d)"><g mask="url(#e9ed594b17)"><g transform="matrix(1, 0, 0, 1, 187, 90)"><g clip-path="url(#8727973664)"><g clip-path="url(#9a2a87c84e)"><path fill="#5271ff" d="M 0.5 0.046875 L 0.5 150.046875 L 75.5 121.921875 Z M 0.5 0.046875 " fill-opacity="1" fill-rule="nonzero"/></g></g></g></g></g><g fill="#ff00ff" fill-opacity="1"><g transform="translate(89.157999, 274.646641)"><g><path d="M 21.015625 0 L 9.984375 0 C 9.441406 0 8.992188 -0.0976562 8.640625 -0.296875 C 8.285156 -0.492188 8.007812 -0.863281 7.8125 -1.40625 L 3.65625 -11.8125 C 3.394531 -12.425781 3.179688 -12.96875 3.015625 -13.4375 C 2.847656 -13.90625 2.707031 -14.351562 2.59375 -14.78125 C 2.476562 -15.207031 2.398438 -15.648438 2.359375 -16.109375 C 2.316406 -16.578125 2.296875 -17.15625 2.296875 -17.84375 L 2.296875 -29.046875 C 2.296875 -29.585938 2.414062 -29.976562 2.65625 -30.21875 C 2.894531 -30.457031 3.285156 -30.578125 3.828125 -30.578125 L 10.578125 -30.578125 C 11.109375 -30.578125 11.515625 -30.457031 11.796875 -30.21875 C 12.085938 -29.976562 12.234375 -29.585938 12.234375 -29.046875 L 12.234375 -17.328125 C 12.234375 -17.046875 12.257812 -16.757812 12.3125 -16.46875 C 12.375 -16.1875 12.460938 -15.894531 12.578125 -15.59375 L 14.5625 -9.640625 C 14.644531 -9.359375 14.742188 -9.164062 14.859375 -9.0625 C 14.972656 -8.96875 15.144531 -8.921875 15.375 -8.921875 L 15.84375 -8.921875 C 16.070312 -8.921875 16.238281 -8.96875 16.34375 -9.0625 C 16.457031 -9.164062 16.554688 -9.359375 16.640625 -9.640625 L 18.640625 -15.625 C 18.753906 -15.9375 18.835938 -16.234375 18.890625 -16.515625 C 18.953125 -16.796875 18.984375 -17.082031 18.984375 -17.375 L 18.984375 -29.046875 C 18.984375 -29.585938 19.101562 -29.976562 19.34375 -30.21875 C 19.582031 -30.457031 19.972656 -30.578125 20.515625 -30.578125 L 27.1875 -30.578125 C 27.71875 -30.578125 28.101562 -30.457031 28.34375 -30.21875 C 28.582031 -29.976562 28.703125 -29.585938 28.703125 -29.046875 L 28.703125 -17.84375 C 28.703125 -17.15625 28.679688 -16.578125 28.640625 -16.109375 C 28.597656 -15.648438 28.519531 -15.207031 28.40625 -14.78125 C 28.289062 -14.351562 28.148438 -13.90625 27.984375 -13.4375 C 27.816406 -12.96875 27.601562 -12.425781 27.34375 -11.8125 L 23.1875 -1.40625 C 22.988281 -0.863281 22.710938 -0.492188 22.359375 -0.296875 C 22.003906 -0.0976562 21.554688 0 21.015625 0 Z M 21.015625 0 "/></g></g></g><g fill="#ff00ff" fill-opacity="1"><g transform="translate(120.151642, 274.646641)"><g><path d="M 24.171875 0 L 4.453125 0 C 3.921875 0 3.535156 -0.117188 3.296875 -0.359375 C 3.054688 -0.597656 2.9375 -0.988281 2.9375 -1.53125 L 2.9375 -29.046875 C 2.9375 -29.585938 3.054688 -29.976562 3.296875 -30.21875 C 3.535156 -30.457031 3.921875 -30.578125 4.453125 -30.578125 L 24.171875 -30.578125 C 24.703125 -30.578125 25.085938 -30.457031 25.328125 -30.21875 C 25.566406 -29.976562 25.6875 -29.585938 25.6875 -29.046875 L 25.6875 -24.078125 C 25.6875 -23.535156 25.566406 -23.144531 25.328125 -22.90625 C 25.085938 -22.664062 24.703125 -22.546875 24.171875 -22.546875 L 12.4375 -22.546875 L 12.4375 -19.28125 L 20.71875 -19.28125 C 21.257812 -19.28125 21.648438 -19.160156 21.890625 -18.921875 C 22.128906 -18.679688 22.25 -18.289062 22.25 -17.75 L 22.25 -13.203125 C 22.25 -12.671875 22.128906 -12.28125 21.890625 -12.03125 C 21.648438 -11.789062 21.257812 -11.671875 20.71875 -11.671875 L 12.4375 -11.671875 L 12.4375 -8.03125 L 24.171875 -8.03125 C 24.703125 -8.03125 25.085938 -7.90625 25.328125 -7.65625 C 25.566406 -7.414062 25.6875 -7.03125 25.6875 -6.5 L 25.6875 -1.53125 C 25.6875 -0.988281 25.566406 -0.597656 25.328125 -0.359375 C 25.085938 -0.117188 24.703125 0 24.171875 0 Z M 22.515625 -33.8125 L 7.6875 -31.984375 C 7.207031 -31.921875 6.847656 -32.015625 6.609375 -32.265625 C 6.367188 -32.523438 6.25 -32.894531 6.25 -33.375 L 6.25 -37.453125 C 6.25 -37.992188 6.367188 -38.367188 6.609375 -38.578125 C 6.847656 -38.796875 7.238281 -38.929688 7.78125 -38.984375 L 22.59375 -40.8125 C 23.070312 -40.863281 23.429688 -40.765625 23.671875 -40.515625 C 23.921875 -40.265625 24.046875 -39.894531 24.046875 -39.40625 L 24.046875 -35.328125 C 24.046875 -34.796875 23.921875 -34.421875 23.671875 -34.203125 C 23.429688 -33.992188 23.046875 -33.863281 22.515625 -33.8125 Z M 22.515625 -33.8125 "/></g></g></g><g fill="#ff00ff" fill-opacity="1"><g transform="translate(147.918543, 274.646641)"><g><path d="M 12.53125 -22.9375 L 12.53125 -17.5 L 15.71875 -17.5 C 16.445312 -17.5 16.9375 -17.6875 17.1875 -18.0625 C 17.445312 -18.445312 17.578125 -18.925781 17.578125 -19.5 L 17.578125 -20.9375 C 17.578125 -21.5 17.445312 -21.972656 17.1875 -22.359375 C 16.9375 -22.742188 16.445312 -22.9375 15.71875 -22.9375 Z M 11 0 L 4.453125 0 C 3.921875 0 3.535156 -0.117188 3.296875 -0.359375 C 3.054688 -0.597656 2.9375 -0.988281 2.9375 -1.53125 L 2.9375 -29.046875 C 2.9375 -29.585938 3.054688 -29.976562 3.296875 -30.21875 C 3.535156 -30.457031 3.921875 -30.578125 4.453125 -30.578125 L 18.59375 -30.578125 C 21.769531 -30.578125 23.957031 -29.914062 25.15625 -28.59375 C 26.363281 -27.28125 26.96875 -25.578125 26.96875 -23.484375 L 26.96875 -21.53125 C 26.96875 -20.34375 26.789062 -19.332031 26.4375 -18.5 C 26.082031 -17.664062 25.46875 -17.0625 24.59375 -16.6875 C 26.113281 -16.519531 27.347656 -15.894531 28.296875 -14.8125 C 29.253906 -13.738281 29.734375 -12.3125 29.734375 -10.53125 L 29.734375 -1.53125 C 29.734375 -0.988281 29.609375 -0.597656 29.359375 -0.359375 C 29.117188 -0.117188 28.734375 0 28.203125 0 L 21.609375 0 C 21.078125 0 20.691406 -0.117188 20.453125 -0.359375 C 20.210938 -0.597656 20.09375 -0.988281 20.09375 -1.53125 L 20.09375 -8.03125 C 20.09375 -8.644531 19.96875 -9.101562 19.71875 -9.40625 C 19.476562 -9.707031 19.0625 -9.859375 18.46875 -9.859375 L 12.53125 -9.859375 L 12.53125 -1.53125 C 12.53125 -0.988281 12.410156 -0.597656 12.171875 -0.359375 C 11.929688 -0.117188 11.539062 0 11 0 Z M 11 0 "/></g></g></g><g fill="#ff00ff" fill-opacity="1"><g transform="translate(179.464123, 274.646641)"><g><path d="M 17.375 0 L 10.484375 0 C 9.953125 0 9.5625 -0.117188 9.3125 -0.359375 C 9.070312 -0.597656 8.953125 -0.988281 8.953125 -1.53125 L 8.953125 -22.375 L 2.71875 -22.375 C 2.175781 -22.375 1.785156 -22.492188 1.546875 -22.734375 C 1.304688 -22.984375 1.1875 -23.375 1.1875 -23.90625 L 1.1875 -29.046875 C 1.1875 -29.585938 1.304688 -29.976562 1.546875 -30.21875 C 1.785156 -30.457031 2.175781 -30.578125 2.71875 -30.578125 L 25.140625 -30.578125 C 25.679688 -30.578125 26.070312 -30.457031 26.3125 -30.21875 C 26.550781 -29.976562 26.671875 -29.585938 26.671875 -29.046875 L 26.671875 -23.90625 C 26.671875 -23.375 26.550781 -22.984375 26.3125 -22.734375 C 26.070312 -22.492188 25.679688 -22.375 25.140625 -22.375 L 18.90625 -22.375 L 18.90625 -1.53125 C 18.90625 -0.988281 18.78125 -0.597656 18.53125 -0.359375 C 18.289062 -0.117188 17.90625 0 17.375 0 Z M 17.375 0 "/></g></g></g><g fill="#ff00ff" fill-opacity="1"><g transform="translate(207.315939, 274.646641)"><g><path d="M 3.78125 0 C 3.238281 0 2.847656 -0.117188 2.609375 -0.359375 C 2.367188 -0.597656 2.25 -0.988281 2.25 -1.53125 L 2.25 -6.578125 C 2.25 -7.117188 2.367188 -7.507812 2.609375 -7.75 C 2.847656 -7.988281 3.238281 -8.109375 3.78125 -8.109375 L 7.984375 -8.109375 L 7.984375 -22.375 L 3.78125 -22.375 C 3.238281 -22.375 2.847656 -22.492188 2.609375 -22.734375 C 2.367188 -22.984375 2.25 -23.375 2.25 -23.90625 L 2.25 -29.046875 C 2.25 -29.585938 2.367188 -29.976562 2.609375 -30.21875 C 2.847656 -30.457031 3.238281 -30.578125 3.78125 -30.578125 L 21.875 -30.578125 C 22.40625 -30.578125 22.789062 -30.457031 23.03125 -30.21875 C 23.28125 -29.976562 23.40625 -29.585938 23.40625 -29.046875 L 23.40625 -23.90625 C 23.40625 -23.375 23.28125 -22.984375 23.03125 -22.734375 C 22.789062 -22.492188 22.40625 -22.375 21.875 -22.375 L 17.75 -22.375 L 17.75 -8.109375 L 21.875 -8.109375 C 22.40625 -8.109375 22.789062 -7.988281 23.03125 -7.75 C 23.28125 -7.507812 23.40625 -7.117188 23.40625 -6.578125 L 23.40625 -1.53125 C 23.40625 -0.988281 23.28125 -0.597656 23.03125 -0.359375 C 22.789062 -0.117188 22.40625 0 21.875 0 Z M 3.78125 0 "/></g></g></g><g fill="#ff00ff" fill-opacity="1"><g transform="translate(233.002453, 274.646641)"><g><path d="M 23.265625 0 L 12.90625 0 C 9.375 0 6.75 -0.707031 5.03125 -2.125 C 3.320312 -3.539062 2.46875 -5.71875 2.46875 -8.65625 L 2.46875 -21.875 C 2.46875 -24.8125 3.320312 -26.992188 5.03125 -28.421875 C 6.75 -29.859375 9.375 -30.578125 12.90625 -30.578125 L 23.265625 -30.578125 C 23.804688 -30.578125 24.195312 -30.457031 24.4375 -30.21875 C 24.675781 -29.976562 24.796875 -29.585938 24.796875 -29.046875 L 24.796875 -23.90625 C 24.796875 -23.375 24.675781 -22.984375 24.4375 -22.734375 C 24.195312 -22.492188 23.804688 -22.375 23.265625 -22.375 L 14.734375 -22.375 C 13.859375 -22.375 13.207031 -22.195312 12.78125 -21.84375 C 12.351562 -21.488281 12.140625 -20.957031 12.140625 -20.25 L 12.140625 -10.15625 C 12.140625 -9.445312 12.351562 -8.925781 12.78125 -8.59375 C 13.207031 -8.269531 13.859375 -8.109375 14.734375 -8.109375 L 23.265625 -8.109375 C 23.804688 -8.109375 24.195312 -7.988281 24.4375 -7.75 C 24.675781 -7.507812 24.796875 -7.117188 24.796875 -6.578125 L 24.796875 -1.53125 C 24.796875 -0.988281 24.675781 -0.597656 24.4375 -0.359375 C 24.195312 -0.117188 23.804688 0 23.265625 0 Z M 23.265625 0 "/></g></g></g><g fill="#ff00ff" fill-opacity="1"><g transform="translate(259.66548, 274.646641)"><g><path d="M 24.171875 0 L 4.453125 0 C 3.921875 0 3.535156 -0.117188 3.296875 -0.359375 C 3.054688 -0.597656 2.9375 -0.988281 2.9375 -1.53125 L 2.9375 -29.046875 C 2.9375 -29.585938 3.054688 -29.976562 3.296875 -30.21875 C 3.535156 -30.457031 3.921875 -30.578125 4.453125 -30.578125 L 24.171875 -30.578125 C 24.703125 -30.578125 25.085938 -30.457031 25.328125 -30.21875 C 25.566406 -29.976562 25.6875 -29.585938 25.6875 -29.046875 L 25.6875 -24.078125 C 25.6875 -23.535156 25.566406 -23.144531 25.328125 -22.90625 C 25.085938 -22.664062 24.703125 -22.546875 24.171875 -22.546875 L 12.4375 -22.546875 L 12.4375 -19.28125 L 20.71875 -19.28125 C 21.257812 -19.28125 21.648438 -19.160156 21.890625 -18.921875 C 22.128906 -18.679688 22.25 -18.289062 22.25 -17.75 L 22.25 -13.203125 C 22.25 -12.671875 22.128906 -12.28125 21.890625 -12.03125 C 21.648438 -11.789062 21.257812 -11.671875 20.71875 -11.671875 L 12.4375 -11.671875 L 12.4375 -8.03125 L 24.171875 -8.03125 C 24.703125 -8.03125 25.085938 -7.90625 25.328125 -7.65625 C 25.566406 -7.414062 25.6875 -7.03125 25.6875 -6.5 L 25.6875 -1.53125 C 25.6875 -0.988281 25.566406 -0.597656 25.328125 -0.359375 C 25.085938 -0.117188 24.703125 0 24.171875 0 Z M 24.171875 0 "/></g></g></g><g fill="#00ffff" fill-opacity="1"><g transform="translate(87.565436, 274.646641)"><g><path d="M 21.015625 0 L 9.984375 0 C 9.441406 0 8.992188 -0.0976562 8.640625 -0.296875 C 8.285156 -0.492188 8.007812 -0.863281 7.8125 -1.40625 L 3.65625 -11.8125 C 3.394531 -12.425781 3.179688 -12.96875 3.015625 -13.4375 C 2.847656 -13.90625 2.707031 -14.351562 2.59375 -14.78125 C 2.476562 -15.207031 2.398438 -15.648438 2.359375 -16.109375 C 2.316406 -16.578125 2.296875 -17.15625 2.296875 -17.84375 L 2.296875 -29.046875 C 2.296875 -29.585938 2.414062 -29.976562 2.65625 -30.21875 C 2.894531 -30.457031 3.285156 -30.578125 3.828125 -30.578125 L 10.578125 -30.578125 C 11.109375 -30.578125 11.515625 -30.457031 11.796875 -30.21875 C 12.085938 -29.976562 12.234375 -29.585938 12.234375 -29.046875 L 12.234375 -17.328125 C 12.234375 -17.046875 12.257812 -16.757812 12.3125 -16.46875 C 12.375 -16.1875 12.460938 -15.894531 12.578125 -15.59375 L 14.5625 -9.640625 C 14.644531 -9.359375 14.742188 -9.164062 14.859375 -9.0625 C 14.972656 -8.96875 15.144531 -8.921875 15.375 -8.921875 L 15.84375 -8.921875 C 16.070312 -8.921875 16.238281 -8.96875 16.34375 -9.0625 C 16.457031 -9.164062 16.554688 -9.359375 16.640625 -9.640625 L 18.640625 -15.625 C 18.753906 -15.9375 18.835938 -16.234375 18.890625 -16.515625 C 18.953125 -16.796875 18.984375 -17.082031 18.984375 -17.375 L 18.984375 -29.046875 C 18.984375 -29.585938 19.101562 -29.976562 19.34375 -30.21875 C 19.582031 -30.457031 19.972656 -30.578125 20.515625 -30.578125 L 27.1875 -30.578125 C 27.71875 -30.578125 28.101562 -30.457031 28.34375 -30.21875 C 28.582031 -29.976562 28.703125 -29.585938 28.703125 -29.046875 L 28.703125 -17.84375 C 28.703125 -17.15625 28.679688 -16.578125 28.640625 -16.109375 C 28.597656 -15.648438 28.519531 -15.207031 28.40625 -14.78125 C 28.289062 -14.351562 28.148438 -13.90625 27.984375 -13.4375 C 27.816406 -12.96875 27.601562 -12.425781 27.34375 -11.8125 L 23.1875 -1.40625 C 22.988281 -0.863281 22.710938 -0.492188 22.359375 -0.296875 C 22.003906 -0.0976562 21.554688 0 21.015625 0 Z M 21.015625 0 "/></g></g></g><g fill="#00ffff" fill-opacity="1"><g transform="translate(118.559079, 274.646641)"><g><path d="M 24.171875 0 L 4.453125 0 C 3.921875 0 3.535156 -0.117188 3.296875 -0.359375 C 3.054688 -0.597656 2.9375 -0.988281 2.9375 -1.53125 L 2.9375 -29.046875 C 2.9375 -29.585938 3.054688 -29.976562 3.296875 -30.21875 C 3.535156 -30.457031 3.921875 -30.578125 4.453125 -30.578125 L 24.171875 -30.578125 C 24.703125 -30.578125 25.085938 -30.457031 25.328125 -30.21875 C 25.566406 -29.976562 25.6875 -29.585938 25.6875 -29.046875 L 25.6875 -24.078125 C 25.6875 -23.535156 25.566406 -23.144531 25.328125 -22.90625 C 25.085938 -22.664062 24.703125 -22.546875 24.171875 -22.546875 L 12.4375 -22.546875 L 12.4375 -19.28125 L 20.71875 -19.28125 C 21.257812 -19.28125 21.648438 -19.160156 21.890625 -18.921875 C 22.128906 -18.679688 22.25 -18.289062 22.25 -17.75 L 22.25 -13.203125 C 22.25 -12.671875 22.128906 -12.28125 21.890625 -12.03125 C 21.648438 -11.789062 21.257812 -11.671875 20.71875 -11.671875 L 12.4375 -11.671875 L 12.4375 -8.03125 L 24.171875 -8.03125 C 24.703125 -8.03125 25.085938 -7.90625 25.328125 -7.65625 C 25.566406 -7.414062 25.6875 -7.03125 25.6875 -6.5 L 25.6875 -1.53125 C 25.6875 -0.988281 25.566406 -0.597656 25.328125 -0.359375 C 25.085938 -0.117188 24.703125 0 24.171875 0 Z M 22.515625 -33.8125 L 7.6875 -31.984375 C 7.207031 -31.921875 6.847656 -32.015625 6.609375 -32.265625 C 6.367188 -32.523438 6.25 -32.894531 6.25 -33.375 L 6.25 -37.453125 C 6.25 -37.992188 6.367188 -38.367188 6.609375 -38.578125 C 6.847656 -38.796875 7.238281 -38.929688 7.78125 -38.984375 L 22.59375 -40.8125 C 23.070312 -40.863281 23.429688 -40.765625 23.671875 -40.515625 C 23.921875 -40.265625 24.046875 -39.894531 24.046875 -39.40625 L 24.046875 -35.328125 C 24.046875 -34.796875 23.921875 -34.421875 23.671875 -34.203125 C 23.429688 -33.992188 23.046875 -33.863281 22.515625 -33.8125 Z M 22.515625 -33.8125 "/></g></g></g><g fill="#00ffff" fill-opacity="1"><g transform="translate(146.32598, 274.646641)"><g><path d="M 12.53125 -22.9375 L 12.53125 -17.5 L 15.71875 -17.5 C 16.445312 -17.5 16.9375 -17.6875 17.1875 -18.0625 C 17.445312 -18.445312 17.578125 -18.925781 17.578125 -19.5 L 17.578125 -20.9375 C 17.578125 -21.5 17.445312 -21.972656 17.1875 -22.359375 C 16.9375 -22.742188 16.445312 -22.9375 15.71875 -22.9375 Z M 11 0 L 4.453125 0 C 3.921875 0 3.535156 -0.117188 3.296875 -0.359375 C 3.054688 -0.597656 2.9375 -0.988281 2.9375 -1.53125 L 2.9375 -29.046875 C 2.9375 -29.585938 3.054688 -29.976562 3.296875 -30.21875 C 3.535156 -30.457031 3.921875 -30.578125 4.453125 -30.578125 L 18.59375 -30.578125 C 21.769531 -30.578125 23.957031 -29.914062 25.15625 -28.59375 C 26.363281 -27.28125 26.96875 -25.578125 26.96875 -23.484375 L 26.96875 -21.53125 C 26.96875 -20.34375 26.789062 -19.332031 26.4375 -18.5 C 26.082031 -17.664062 25.46875 -17.0625 24.59375 -16.6875 C 26.113281 -16.519531 27.347656 -15.894531 28.296875 -14.8125 C 29.253906 -13.738281 29.734375 -12.3125 29.734375 -10.53125 L 29.734375 -1.53125 C 29.734375 -0.988281 29.609375 -0.597656 29.359375 -0.359375 C 29.117188 -0.117188 28.734375 0 28.203125 0 L 21.609375 0 C 21.078125 0 20.691406 -0.117188 20.453125 -0.359375 C 20.210938 -0.597656 20.09375 -0.988281 20.09375 -1.53125 L 20.09375 -8.03125 C 20.09375 -8.644531 19.96875 -9.101562 19.71875 -9.40625 C 19.476562 -9.707031 19.0625 -9.859375 18.46875 -9.859375 L 12.53125 -9.859375 L 12.53125 -1.53125 C 12.53125 -0.988281 12.410156 -0.597656 12.171875 -0.359375 C 11.929688 -0.117188 11.539062 0 11 0 Z M 11 0 "/></g></g></g><g fill="#00ffff" fill-opacity="1"><g transform="translate(177.87156, 274.646641)"><g><path d="M 17.375 0 L 10.484375 0 C 9.953125 0 9.5625 -0.117188 9.3125 -0.359375 C 9.070312 -0.597656 8.953125 -0.988281 8.953125 -1.53125 L 8.953125 -22.375 L 2.71875 -22.375 C 2.175781 -22.375 1.785156 -22.492188 1.546875 -22.734375 C 1.304688 -22.984375 1.1875 -23.375 1.1875 -23.90625 L 1.1875 -29.046875 C 1.1875 -29.585938 1.304688 -29.976562 1.546875 -30.21875 C 1.785156 -30.457031 2.175781 -30.578125 2.71875 -30.578125 L 25.140625 -30.578125 C 25.679688 -30.578125 26.070312 -30.457031 26.3125 -30.21875 C 26.550781 -29.976562 26.671875 -29.585938 26.671875 -29.046875 L 26.671875 -23.90625 C 26.671875 -23.375 26.550781 -22.984375 26.3125 -22.734375 C 26.070312 -22.492188 25.679688 -22.375 25.140625 -22.375 L 18.90625 -22.375 L 18.90625 -1.53125 C 18.90625 -0.988281 18.78125 -0.597656 18.53125 -0.359375 C 18.289062 -0.117188 17.90625 0 17.375 0 Z M 17.375 0 "/></g></g></g><g fill="#00ffff" fill-opacity="1"><g transform="translate(205.723376, 274.646641)"><g><path d="M 3.78125 0 C 3.238281 0 2.847656 -0.117188 2.609375 -0.359375 C 2.367188 -0.597656 2.25 -0.988281 2.25 -1.53125 L 2.25 -6.578125 C 2.25 -7.117188 2.367188 -7.507812 2.609375 -7.75 C 2.847656 -7.988281 3.238281 -8.109375 3.78125 -8.109375 L 7.984375 -8.109375 L 7.984375 -22.375 L 3.78125 -22.375 C 3.238281 -22.375 2.847656 -22.492188 2.609375 -22.734375 C 2.367188 -22.984375 2.25 -23.375 2.25 -23.90625 L 2.25 -29.046875 C 2.25 -29.585938 2.367188 -29.976562 2.609375 -30.21875 C 2.847656 -30.457031 3.238281 -30.578125 3.78125 -30.578125 L 21.875 -30.578125 C 22.40625 -30.578125 22.789062 -30.457031 23.03125 -30.21875 C 23.28125 -29.976562 23.40625 -29.585938 23.40625 -29.046875 L 23.40625 -23.90625 C 23.40625 -23.375 23.28125 -22.984375 23.03125 -22.734375 C 22.789062 -22.492188 22.40625 -22.375 21.875 -22.375 L 17.75 -22.375 L 17.75 -8.109375 L 21.875 -8.109375 C 22.40625 -8.109375 22.789062 -7.988281 23.03125 -7.75 C 23.28125 -7.507812 23.40625 -7.117188 23.40625 -6.578125 L 23.40625 -1.53125 C 23.40625 -0.988281 23.28125 -0.597656 23.03125 -0.359375 C 22.789062 -0.117188 22.40625 0 21.875 0 Z M 3.78125 0 "/></g></g></g><g fill="#00ffff" fill-opacity="1"><g transform="translate(231.40989, 274.646641)"><g><path d="M 23.265625 0 L 12.90625 0 C 9.375 0 6.75 -0.707031 5.03125 -2.125 C 3.320312 -3.539062 2.46875 -5.71875 2.46875 -8.65625 L 2.46875 -21.875 C 2.46875 -24.8125 3.320312 -26.992188 5.03125 -28.421875 C 6.75 -29.859375 9.375 -30.578125 12.90625 -30.578125 L 23.265625 -30.578125 C 23.804688 -30.578125 24.195312 -30.457031 24.4375 -30.21875 C 24.675781 -29.976562 24.796875 -29.585938 24.796875 -29.046875 L 24.796875 -23.90625 C 24.796875 -23.375 24.675781 -22.984375 24.4375 -22.734375 C 24.195312 -22.492188 23.804688 -22.375 23.265625 -22.375 L 14.734375 -22.375 C 13.859375 -22.375 13.207031 -22.195312 12.78125 -21.84375 C 12.351562 -21.488281 12.140625 -20.957031 12.140625 -20.25 L 12.140625 -10.15625 C 12.140625 -9.445312 12.351562 -8.925781 12.78125 -8.59375 C 13.207031 -8.269531 13.859375 -8.109375 14.734375 -8.109375 L 23.265625 -8.109375 C 23.804688 -8.109375 24.195312 -7.988281 24.4375 -7.75 C 24.675781 -7.507812 24.796875 -7.117188 24.796875 -6.578125 L 24.796875 -1.53125 C 24.796875 -0.988281 24.675781 -0.597656 24.4375 -0.359375 C 24.195312 -0.117188 23.804688 0 23.265625 0 Z M 23.265625 0 "/></g></g></g><g fill="#00ffff" fill-opacity="1"><g transform="translate(258.072917, 274.646641)"><g><path d="M 24.171875 0 L 4.453125 0 C 3.921875 0 3.535156 -0.117188 3.296875 -0.359375 C 3.054688 -0.597656 2.9375 -0.988281 2.9375 -1.53125 L 2.9375 -29.046875 C 2.9375 -29.585938 3.054688 -29.976562 3.296875 -30.21875 C 3.535156 -30.457031 3.921875 -30.578125 4.453125 -30.578125 L 24.171875 -30.578125 C 24.703125 -30.578125 25.085938 -30.457031 25.328125 -30.21875 C 25.566406 -29.976562 25.6875 -29.585938 25.6875 -29.046875 L 25.6875 -24.078125 C 25.6875 -23.535156 25.566406 -23.144531 25.328125 -22.90625 C 25.085938 -22.664062 24.703125 -22.546875 24.171875 -22.546875 L 12.4375 -22.546875 L 12.4375 -19.28125 L 20.71875 -19.28125 C 21.257812 -19.28125 21.648438 -19.160156 21.890625 -18.921875 C 22.128906 -18.679688 22.25 -18.289062 22.25 -17.75 L 22.25 -13.203125 C 22.25 -12.671875 22.128906 -12.28125 21.890625 -12.03125 C 21.648438 -11.789062 21.257812 -11.671875 20.71875 -11.671875 L 12.4375 -11.671875 L 12.4375 -8.03125 L 24.171875 -8.03125 C 24.703125 -8.03125 25.085938 -7.90625 25.328125 -7.65625 C 25.566406 -7.414062 25.6875 -7.03125 25.6875 -6.5 L 25.6875 -1.53125 C 25.6875 -0.988281 25.566406 -0.597656 25.328125 -0.359375 C 25.085938 -0.117188 24.703125 0 24.171875 0 Z M 24.171875 0 "/></g></g></g><g fill="#00796b" fill-opacity="1"><g transform="translate(88.361717, 274.646641)"><g><path d="M 21.015625 0 L 9.984375 0 C 9.441406 0 8.992188 -0.0976562 8.640625 -0.296875 C 8.285156 -0.492188 8.007812 -0.863281 7.8125 -1.40625 L 3.65625 -11.8125 C 3.394531 -12.425781 3.179688 -12.96875 3.015625 -13.4375 C 2.847656 -13.90625 2.707031 -14.351562 2.59375 -14.78125 C 2.476562 -15.207031 2.398438 -15.648438 2.359375 -16.109375 C 2.316406 -16.578125 2.296875 -17.15625 2.296875 -17.84375 L 2.296875 -29.046875 C 2.296875 -29.585938 2.414062 -29.976562 2.65625 -30.21875 C 2.894531 -30.457031 3.285156 -30.578125 3.828125 -30.578125 L 10.578125 -30.578125 C 11.109375 -30.578125 11.515625 -30.457031 11.796875 -30.21875 C 12.085938 -29.976562 12.234375 -29.585938 12.234375 -29.046875 L 12.234375 -17.328125 C 12.234375 -17.046875 12.257812 -16.757812 12.3125 -16.46875 C 12.375 -16.1875 12.460938 -15.894531 12.578125 -15.59375 L 14.5625 -9.640625 C 14.644531 -9.359375 14.742188 -9.164062 14.859375 -9.0625 C 14.972656 -8.96875 15.144531 -8.921875 15.375 -8.921875 L 15.84375 -8.921875 C 16.070312 -8.921875 16.238281 -8.96875 16.34375 -9.0625 C 16.457031 -9.164062 16.554688 -9.359375 16.640625 -9.640625 L 18.640625 -15.625 C 18.753906 -15.9375 18.835938 -16.234375 18.890625 -16.515625 C 18.953125 -16.796875 18.984375 -17.082031 18.984375 -17.375 L 18.984375 -29.046875 C 18.984375 -29.585938 19.101562 -29.976562 19.34375 -30.21875 C 19.582031 -30.457031 19.972656 -30.578125 20.515625 -30.578125 L 27.1875 -30.578125 C 27.71875 -30.578125 28.101562 -30.457031 28.34375 -30.21875 C 28.582031 -29.976562 28.703125 -29.585938 28.703125 -29.046875 L 28.703125 -17.84375 C 28.703125 -17.15625 28.679688 -16.578125 28.640625 -16.109375 C 28.597656 -15.648438 28.519531 -15.207031 28.40625 -14.78125 C 28.289062 -14.351562 28.148438 -13.90625 27.984375 -13.4375 C 27.816406 -12.96875 27.601562 -12.425781 27.34375 -11.8125 L 23.1875 -1.40625 C 22.988281 -0.863281 22.710938 -0.492188 22.359375 -0.296875 C 22.003906 -0.0976562 21.554688 0 21.015625 0 Z M 21.015625 0 "/></g></g></g><g fill="#00796b" fill-opacity="1"><g transform="translate(119.35536, 274.646641)"><g><path d="M 24.171875 0 L 4.453125 0 C 3.921875 0 3.535156 -0.117188 3.296875 -0.359375 C 3.054688 -0.597656 2.9375 -0.988281 2.9375 -1.53125 L 2.9375 -29.046875 C 2.9375 -29.585938 3.054688 -29.976562 3.296875 -30.21875 C 3.535156 -30.457031 3.921875 -30.578125 4.453125 -30.578125 L 24.171875 -30.578125 C 24.703125 -30.578125 25.085938 -30.457031 25.328125 -30.21875 C 25.566406 -29.976562 25.6875 -29.585938 25.6875 -29.046875 L 25.6875 -24.078125 C 25.6875 -23.535156 25.566406 -23.144531 25.328125 -22.90625 C 25.085938 -22.664062 24.703125 -22.546875 24.171875 -22.546875 L 12.4375 -22.546875 L 12.4375 -19.28125 L 20.71875 -19.28125 C 21.257812 -19.28125 21.648438 -19.160156 21.890625 -18.921875 C 22.128906 -18.679688 22.25 -18.289062 22.25 -17.75 L 22.25 -13.203125 C 22.25 -12.671875 22.128906 -12.28125 21.890625 -12.03125 C 21.648438 -11.789062 21.257812 -11.671875 20.71875 -11.671875 L 12.4375 -11.671875 L 12.4375 -8.03125 L 24.171875 -8.03125 C 24.703125 -8.03125 25.085938 -7.90625 25.328125 -7.65625 C 25.566406 -7.414062 25.6875 -7.03125 25.6875 -6.5 L 25.6875 -1.53125 C 25.6875 -0.988281 25.566406 -0.597656 25.328125 -0.359375 C 25.085938 -0.117188 24.703125 0 24.171875 0 Z M 22.515625 -33.8125 L 7.6875 -31.984375 C 7.207031 -31.921875 6.847656 -32.015625 6.609375 -32.265625 C 6.367188 -32.523438 6.25 -32.894531 6.25 -33.375 L 6.25 -37.453125 C 6.25 -37.992188 6.367188 -38.367188 6.609375 -38.578125 C 6.847656 -38.796875 7.238281 -38.929688 7.78125 -38.984375 L 22.59375 -40.8125 C 23.070312 -40.863281 23.429688 -40.765625 23.671875 -40.515625 C 23.921875 -40.265625 24.046875 -39.894531 24.046875 -39.40625 L 24.046875 -35.328125 C 24.046875 -34.796875 23.921875 -34.421875 23.671875 -34.203125 C 23.429688 -33.992188 23.046875 -33.863281 22.515625 -33.8125 Z M 22.515625 -33.8125 "/></g></g></g><g fill="#00796b" fill-opacity="1"><g transform="translate(147.122261, 274.646641)"><g><path d="M 12.53125 -22.9375 L 12.53125 -17.5 L 15.71875 -17.5 C 16.445312 -17.5 16.9375 -17.6875 17.1875 -18.0625 C 17.445312 -18.445312 17.578125 -18.925781 17.578125 -19.5 L 17.578125 -20.9375 C 17.578125 -21.5 17.445312 -21.972656 17.1875 -22.359375 C 16.9375 -22.742188 16.445312 -22.9375 15.71875 -22.9375 Z M 11 0 L 4.453125 0 C 3.921875 0 3.535156 -0.117188 3.296875 -0.359375 C 3.054688 -0.597656 2.9375 -0.988281 2.9375 -1.53125 L 2.9375 -29.046875 C 2.9375 -29.585938 3.054688 -29.976562 3.296875 -30.21875 C 3.535156 -30.457031 3.921875 -30.578125 4.453125 -30.578125 L 18.59375 -30.578125 C 21.769531 -30.578125 23.957031 -29.914062 25.15625 -28.59375 C 26.363281 -27.28125 26.96875 -25.578125 26.96875 -23.484375 L 26.96875 -21.53125 C 26.96875 -20.34375 26.789062 -19.332031 26.4375 -18.5 C 26.082031 -17.664062 25.46875 -17.0625 24.59375 -16.6875 C 26.113281 -16.519531 27.347656 -15.894531 28.296875 -14.8125 C 29.253906 -13.738281 29.734375 -12.3125 29.734375 -10.53125 L 29.734375 -1.53125 C 29.734375 -0.988281 29.609375 -0.597656 29.359375 -0.359375 C 29.117188 -0.117188 28.734375 0 28.203125 0 L 21.609375 0 C 21.078125 0 20.691406 -0.117188 20.453125 -0.359375 C 20.210938 -0.597656 20.09375 -0.988281 20.09375 -1.53125 L 20.09375 -8.03125 C 20.09375 -8.644531 19.96875 -9.101562 19.71875 -9.40625 C 19.476562 -9.707031 19.0625 -9.859375 18.46875 -9.859375 L 12.53125 -9.859375 L 12.53125 -1.53125 C 12.53125 -0.988281 12.410156 -0.597656 12.171875 -0.359375 C 11.929688 -0.117188 11.539062 0 11 0 Z M 11 0 "/></g></g></g><g fill="#00796b" fill-opacity="1"><g transform="translate(178.667841, 274.646641)"><g><path d="M 17.375 0 L 10.484375 0 C 9.953125 0 9.5625 -0.117188 9.3125 -0.359375 C 9.070312 -0.597656 8.953125 -0.988281 8.953125 -1.53125 L 8.953125 -22.375 L 2.71875 -22.375 C 2.175781 -22.375 1.785156 -22.492188 1.546875 -22.734375 C 1.304688 -22.984375 1.1875 -23.375 1.1875 -23.90625 L 1.1875 -29.046875 C 1.1875 -29.585938 1.304688 -29.976562 1.546875 -30.21875 C 1.785156 -30.457031 2.175781 -30.578125 2.71875 -30.578125 L 25.140625 -30.578125 C 25.679688 -30.578125 26.070312 -30.457031 26.3125 -30.21875 C 26.550781 -29.976562 26.671875 -29.585938 26.671875 -29.046875 L 26.671875 -23.90625 C 26.671875 -23.375 26.550781 -22.984375 26.3125 -22.734375 C 26.070312 -22.492188 25.679688 -22.375 25.140625 -22.375 L 18.90625 -22.375 L 18.90625 -1.53125 C 18.90625 -0.988281 18.78125 -0.597656 18.53125 -0.359375 C 18.289062 -0.117188 17.90625 0 17.375 0 Z M 17.375 0 "/></g></g></g><g fill="#00796b" fill-opacity="1"><g transform="translate(206.519657, 274.646641)"><g><path d="M 3.78125 0 C 3.238281 0 2.847656 -0.117188 2.609375 -0.359375 C 2.367188 -0.597656 2.25 -0.988281 2.25 -1.53125 L 2.25 -6.578125 C 2.25 -7.117188 2.367188 -7.507812 2.609375 -7.75 C 2.847656 -7.988281 3.238281 -8.109375 3.78125 -8.109375 L 7.984375 -8.109375 L 7.984375 -22.375 L 3.78125 -22.375 C 3.238281 -22.375 2.847656 -22.492188 2.609375 -22.734375 C 2.367188 -22.984375 2.25 -23.375 2.25 -23.90625 L 2.25 -29.046875 C 2.25 -29.585938 2.367188 -29.976562 2.609375 -30.21875 C 2.847656 -30.457031 3.238281 -30.578125 3.78125 -30.578125 L 21.875 -30.578125 C 22.40625 -30.578125 22.789062 -30.457031 23.03125 -30.21875 C 23.28125 -29.976562 23.40625 -29.585938 23.40625 -29.046875 L 23.40625 -23.90625 C 23.40625 -23.375 23.28125 -22.984375 23.03125 -22.734375 C 22.789062 -22.492188 22.40625 -22.375 21.875 -22.375 L 17.75 -22.375 L 17.75 -8.109375 L 21.875 -8.109375 C 22.40625 -8.109375 22.789062 -7.988281 23.03125 -7.75 C 23.28125 -7.507812 23.40625 -7.117188 23.40625 -6.578125 L 23.40625 -1.53125 C 23.40625 -0.988281 23.28125 -0.597656 23.03125 -0.359375 C 22.789062 -0.117188 22.40625 0 21.875 0 Z M 3.78125 0 "/></g></g></g><g fill="#00796b" fill-opacity="1"><g transform="translate(232.206172, 274.646641)"><g><path d="M 23.265625 0 L 12.90625 0 C 9.375 0 6.75 -0.707031 5.03125 -2.125 C 3.320312 -3.539062 2.46875 -5.71875 2.46875 -8.65625 L 2.46875 -21.875 C 2.46875 -24.8125 3.320312 -26.992188 5.03125 -28.421875 C 6.75 -29.859375 9.375 -30.578125 12.90625 -30.578125 L 23.265625 -30.578125 C 23.804688 -30.578125 24.195312 -30.457031 24.4375 -30.21875 C 24.675781 -29.976562 24.796875 -29.585938 24.796875 -29.046875 L 24.796875 -23.90625 C 24.796875 -23.375 24.675781 -22.984375 24.4375 -22.734375 C 24.195312 -22.492188 23.804688 -22.375 23.265625 -22.375 L 14.734375 -22.375 C 13.859375 -22.375 13.207031 -22.195312 12.78125 -21.84375 C 12.351562 -21.488281 12.140625 -20.957031 12.140625 -20.25 L 12.140625 -10.15625 C 12.140625 -9.445312 12.351562 -8.925781 12.78125 -8.59375 C 13.207031 -8.269531 13.859375 -8.109375 14.734375 -8.109375 L 23.265625 -8.109375 C 23.804688 -8.109375 24.195312 -7.988281 24.4375 -7.75 C 24.675781 -7.507812 24.796875 -7.117188 24.796875 -6.578125 L 24.796875 -1.53125 C 24.796875 -0.988281 24.675781 -0.597656 24.4375 -0.359375 C 24.195312 -0.117188 23.804688 0 23.265625 0 Z M 23.265625 0 "/></g></g></g><g fill="#00796b" fill-opacity="1"><g transform="translate(258.869199, 274.646641)"><g><path d="M 24.171875 0 L 4.453125 0 C 3.921875 0 3.535156 -0.117188 3.296875 -0.359375 C 3.054688 -0.597656 2.9375 -0.988281 2.9375 -1.53125 L 2.9375 -29.046875 C 2.9375 -29.585938 3.054688 -29.976562 3.296875 -30.21875 C 3.535156 -30.457031 3.921875 -30.578125 4.453125 -30.578125 L 24.171875 -30.578125 C 24.703125 -30.578125 25.085938 -30.457031 25.328125 -30.21875 C 25.566406 -29.976562 25.6875 -29.585938 25.6875 -29.046875 L 25.6875 -24.078125 C 25.6875 -23.535156 25.566406 -23.144531 25.328125 -22.90625 C 25.085938 -22.664062 24.703125 -22.546875 24.171875 -22.546875 L 12.4375 -22.546875 L 12.4375 -19.28125 L 20.71875 -19.28125 C 21.257812 -19.28125 21.648438 -19.160156 21.890625 -18.921875 C 22.128906 -18.679688 22.25 -18.289062 22.25 -17.75 L 22.25 -13.203125 C 22.25 -12.671875 22.128906 -12.28125 21.890625 -12.03125 C 21.648438 -11.789062 21.257812 -11.671875 20.71875 -11.671875 L 12.4375 -11.671875 L 12.4375 -8.03125 L 24.171875 -8.03125 C 24.703125 -8.03125 25.085938 -7.90625 25.328125 -7.65625 C 25.566406 -7.414062 25.6875 -7.03125 25.6875 -6.5 L 25.6875 -1.53125 C 25.6875 -0.988281 25.566406 -0.597656 25.328125 -0.359375 C 25.085938 -0.117188 24.703125 0 24.171875 0 Z M 24.171875 0 "/></g></g></g></svg>